# xmcd
#
# Track frame offsets: 
#        150
#        17889
#        38543
#        53085
#        66993
#        88929
#        104730
#        132032
#        154835
#        176791
#        192438
#        214811
#        246174
#        265628
#
# Disc length: 3575 seconds
#
# Revision: 2
# Processed by: cddbd v1.5.2PL0 Copyright (c) Steve Scherf et al.
# Submitted via: ExactAudioCopyFreeDBPlugin 1.0
#
DISCID=c90df50e
DTITLE=Billy Mackenzie - Transmission Impossible
DYEAR=2004
DGENRE=Alternative
TTITLE0=Wild Is The Wind
TTITLE1=Nocturne Seven
TTITLE2=Satellite Life
TTITLE3=Never Turn Your Back On Mother Earth
TTITLE4=Fourteen Mirrors
TTITLE5=And This She Knows
TTITLE6=Liberty Lounge
TTITLE7=Blue It Is
TTITLE8=When The World Was Young
TTITLE9=Beyond The Sun
TTITLE10=Sing That Song Again
TTITLE11=At The Edge Of The World
TTITLE12=Winter Academy
TTITLE13=Wild Is The Wind (Outtake)
EXTD=
EXTT0=
EXTT1=
EXTT2=
EXTT3=
EXTT4=
EXTT5=
EXTT6=
EXTT7=
EXTT8=
EXTT9=
EXTT10=
EXTT11=
EXTT12=
EXTT13=
PLAYORDER=
